# xmcd
#
# Track frame offsets:
#	150
#	16207
#	33477
#	52339
#	81496
#	107250
#	127225
#	145229
#	160923
#	183814
#	210382
#
# Disc length: 3154 seconds
# Revision: 4
# Processed by: cddbd v1.5.2PL0 Copyright (c) Steve Scherf et al.
# Submitted via: dBpowerAMP V12.0
#
DISCID=950c500b
DTITLE=Philipp Fankhauser - Try My Love
DYEAR=2011
DGENRE=Blues
TTITLE0=Try My Love
TTITLE1=Jealous Kinda Fella
TTITLE2=It's Gonna Rain
TTITLE3=Make My Home Where I Hang My Hat
TTITLE4=Please Come On Home
TTITLE5=Don't Be Afraid Of The Dark
TTITLE6=Cut Me Some Slack
TTITLE7=This Song
TTITLE8=Sweet Deal
TTITLE9=Roadhouses and Automobiles
TTITLE10=Then It Rained
EXTD=
EXTT0=
EXTT1=
EXTT2=
EXTT3=
EXTT4=
EXTT5=
EXTT6=
EXTT7=
EXTT8=
EXTT9=
EXTT10=
PLAYORDER=
